<mxfile host="Electron" modified="2023-08-27T17:55:04.009Z" agent="Mozilla/5.0 (Windows NT 10.0; Win64; x64) AppleWebKit/537.36 (KHTML, like Gecko) draw.io/21.6.5 Chrome/114.0.5735.243 Electron/25.3.1 Safari/537.36" etag="o2X3Ns6ZxpiHn-oShfrr" version="21.6.5" type="device" pages="3">
  <diagram name="Caso de Uso" id="6d8ePc2PMjv4wtkg84vL">
    <mxGraphModel dx="1863" dy="606" grid="1" gridSize="10" guides="1" tooltips="1" connect="1" arrows="1" fold="1" page="1" pageScale="1" pageWidth="827" pageHeight="1169" math="0" shadow="0">
      <root>
        <mxCell id="0" />
        <mxCell id="1" parent="0" />
        <mxCell id="v_XOkwShlD_FPT9ZVHla-1" value="Secretaria Acadêmica" style="shape=umlActor;verticalLabelPosition=bottom;verticalAlign=top;html=1;" parent="1" vertex="1">
          <mxGeometry x="399" y="190" width="30" height="60" as="geometry" />
        </mxCell>
        <mxCell id="y5SmyRQKt6zjRHHBhAVl-10" style="rounded=0;orthogonalLoop=1;jettySize=auto;html=1;entryX=0.5;entryY=0.5;entryDx=0;entryDy=0;entryPerimeter=0;endArrow=none;endFill=0;" parent="1" source="v_XOkwShlD_FPT9ZVHla-2" target="v_XOkwShlD_FPT9ZVHla-1" edge="1">
          <mxGeometry relative="1" as="geometry" />
        </mxCell>
        <mxCell id="v_XOkwShlD_FPT9ZVHla-2" value="Gerenciar Currículo do semestre" style="ellipse;whiteSpace=wrap;html=1;" parent="1" vertex="1">
          <mxGeometry x="580" y="80" width="210" height="70" as="geometry" />
        </mxCell>
        <mxCell id="y5SmyRQKt6zjRHHBhAVl-11" style="rounded=0;orthogonalLoop=1;jettySize=auto;html=1;entryX=0.5;entryY=0.5;entryDx=0;entryDy=0;entryPerimeter=0;endArrow=none;endFill=0;" parent="1" source="v_XOkwShlD_FPT9ZVHla-7" target="v_XOkwShlD_FPT9ZVHla-1" edge="1">
          <mxGeometry relative="1" as="geometry" />
        </mxCell>
        <mxCell id="v_XOkwShlD_FPT9ZVHla-7" value="Gerenciar professores" style="ellipse;whiteSpace=wrap;html=1;" parent="1" vertex="1">
          <mxGeometry x="617" y="160" width="210" height="70" as="geometry" />
        </mxCell>
        <mxCell id="v_XOkwShlD_FPT9ZVHla-8" value="Incluir disciplinas" style="ellipse;whiteSpace=wrap;html=1;" parent="1" vertex="1">
          <mxGeometry x="940" y="130" width="140" height="70" as="geometry" />
        </mxCell>
        <mxCell id="v_XOkwShlD_FPT9ZVHla-10" value="&amp;lt;&amp;lt; includes &amp;gt;&amp;gt;" style="endArrow=block;endSize=10;endFill=0;html=1;rounded=0;dashed=1;dashPattern=8 8;" parent="1" source="v_XOkwShlD_FPT9ZVHla-2" target="v_XOkwShlD_FPT9ZVHla-8" edge="1">
          <mxGeometry width="160" relative="1" as="geometry">
            <mxPoint x="627.3400000000001" y="292.33000000000004" as="sourcePoint" />
            <mxPoint x="830" y="310.03" as="targetPoint" />
          </mxGeometry>
        </mxCell>
        <mxCell id="v_XOkwShlD_FPT9ZVHla-11" value="Aluno" style="shape=umlActor;verticalLabelPosition=bottom;verticalAlign=top;html=1;" parent="1" vertex="1">
          <mxGeometry x="300" y="380" width="30" height="60" as="geometry" />
        </mxCell>
        <mxCell id="y5SmyRQKt6zjRHHBhAVl-16" style="rounded=0;orthogonalLoop=1;jettySize=auto;html=1;entryX=0.5;entryY=0.5;entryDx=0;entryDy=0;entryPerimeter=0;endArrow=none;endFill=0;" parent="1" source="v_XOkwShlD_FPT9ZVHla-12" target="v_XOkwShlD_FPT9ZVHla-11" edge="1">
          <mxGeometry relative="1" as="geometry" />
        </mxCell>
        <mxCell id="v_XOkwShlD_FPT9ZVHla-12" value="Gerenciar grade do semestre" style="ellipse;whiteSpace=wrap;html=1;" parent="1" vertex="1">
          <mxGeometry x="390" y="375" width="140" height="70" as="geometry" />
        </mxCell>
        <mxCell id="v_XOkwShlD_FPT9ZVHla-23" value="Professor" style="shape=umlActor;verticalLabelPosition=bottom;verticalAlign=top;html=1;outlineConnect=0;" parent="1" vertex="1">
          <mxGeometry x="140" y="180" width="30" height="60" as="geometry" />
        </mxCell>
        <mxCell id="v_XOkwShlD_FPT9ZVHla-24" value="Consultar dados da disciplina" style="ellipse;whiteSpace=wrap;html=1;" parent="1" vertex="1">
          <mxGeometry x="-60" y="175" width="140" height="70" as="geometry" />
        </mxCell>
        <mxCell id="v_XOkwShlD_FPT9ZVHla-25" value="" style="endArrow=none;html=1;rounded=0;exitX=0.5;exitY=0.5;exitDx=0;exitDy=0;exitPerimeter=0;" parent="1" source="v_XOkwShlD_FPT9ZVHla-23" target="v_XOkwShlD_FPT9ZVHla-24" edge="1">
          <mxGeometry width="50" height="50" relative="1" as="geometry">
            <mxPoint x="704" y="688" as="sourcePoint" />
            <mxPoint x="791" y="662" as="targetPoint" />
          </mxGeometry>
        </mxCell>
        <mxCell id="v_XOkwShlD_FPT9ZVHla-45" style="edgeStyle=orthogonalEdgeStyle;rounded=0;orthogonalLoop=1;jettySize=auto;html=1;exitX=0.5;exitY=0.5;exitDx=0;exitDy=0;exitPerimeter=0;endArrow=none;endFill=0;" parent="1" source="v_XOkwShlD_FPT9ZVHla-37" target="v_XOkwShlD_FPT9ZVHla-44" edge="1">
          <mxGeometry relative="1" as="geometry" />
        </mxCell>
        <mxCell id="y5SmyRQKt6zjRHHBhAVl-1" style="edgeStyle=orthogonalEdgeStyle;rounded=0;orthogonalLoop=1;jettySize=auto;html=1;startArrow=block;startFill=0;endArrow=none;endFill=0;startSize=10;sourcePerimeterSpacing=20;" parent="1" source="v_XOkwShlD_FPT9ZVHla-37" edge="1">
          <mxGeometry relative="1" as="geometry">
            <mxPoint x="390" y="210" as="targetPoint" />
            <Array as="points">
              <mxPoint x="315" y="210" />
            </Array>
          </mxGeometry>
        </mxCell>
        <mxCell id="y5SmyRQKt6zjRHHBhAVl-3" style="edgeStyle=orthogonalEdgeStyle;rounded=0;orthogonalLoop=1;jettySize=auto;html=1;entryX=0.5;entryY=0;entryDx=0;entryDy=0;entryPerimeter=0;endArrow=none;endFill=0;startArrow=block;startFill=0;startSize=10;sourcePerimeterSpacing=20;" parent="1" source="v_XOkwShlD_FPT9ZVHla-37" target="v_XOkwShlD_FPT9ZVHla-11" edge="1">
          <mxGeometry relative="1" as="geometry" />
        </mxCell>
        <mxCell id="y5SmyRQKt6zjRHHBhAVl-6" style="edgeStyle=orthogonalEdgeStyle;rounded=0;orthogonalLoop=1;jettySize=auto;html=1;entryX=0.5;entryY=0.21;entryDx=0;entryDy=0;entryPerimeter=0;endArrow=none;endFill=0;startArrow=block;startFill=0;startSize=10;sourcePerimeterSpacing=20;" parent="1" source="v_XOkwShlD_FPT9ZVHla-37" target="v_XOkwShlD_FPT9ZVHla-23" edge="1">
          <mxGeometry relative="1" as="geometry">
            <Array as="points">
              <mxPoint x="315" y="210" />
              <mxPoint x="155" y="210" />
            </Array>
          </mxGeometry>
        </mxCell>
        <mxCell id="v_XOkwShlD_FPT9ZVHla-37" value="Usuário" style="shape=umlActor;verticalLabelPosition=bottom;verticalAlign=top;html=1;" parent="1" vertex="1">
          <mxGeometry x="300" y="35" width="30" height="60" as="geometry" />
        </mxCell>
        <mxCell id="v_XOkwShlD_FPT9ZVHla-44" value="Realizar Login" style="ellipse;whiteSpace=wrap;html=1;" parent="1" vertex="1">
          <mxGeometry x="414" y="30" width="140" height="70" as="geometry" />
        </mxCell>
        <mxCell id="y5SmyRQKt6zjRHHBhAVl-12" style="rounded=0;orthogonalLoop=1;jettySize=auto;html=1;entryX=0.5;entryY=0.5;entryDx=0;entryDy=0;entryPerimeter=0;endArrow=none;endFill=0;" parent="1" source="y5SmyRQKt6zjRHHBhAVl-7" target="v_XOkwShlD_FPT9ZVHla-1" edge="1">
          <mxGeometry relative="1" as="geometry" />
        </mxCell>
        <mxCell id="y5SmyRQKt6zjRHHBhAVl-7" value="Gerenciar disciplina" style="ellipse;whiteSpace=wrap;html=1;" parent="1" vertex="1">
          <mxGeometry x="630" y="240" width="210" height="70" as="geometry" />
        </mxCell>
        <mxCell id="y5SmyRQKt6zjRHHBhAVl-14" style="rounded=0;orthogonalLoop=1;jettySize=auto;html=1;entryX=0.5;entryY=0.5;entryDx=0;entryDy=0;entryPerimeter=0;endArrow=none;endFill=0;" parent="1" source="y5SmyRQKt6zjRHHBhAVl-13" target="v_XOkwShlD_FPT9ZVHla-1" edge="1">
          <mxGeometry relative="1" as="geometry" />
        </mxCell>
        <mxCell id="y5SmyRQKt6zjRHHBhAVl-13" value="Gerenciar aluno" style="ellipse;whiteSpace=wrap;html=1;" parent="1" vertex="1">
          <mxGeometry x="520" y="310" width="210" height="70" as="geometry" />
        </mxCell>
      </root>
    </mxGraphModel>
  </diagram>
  <diagram id="_5Pkzqie7wKa6qrPOmTf" name="ClasseV1">
    <mxGraphModel dx="2745" dy="1807" grid="1" gridSize="10" guides="1" tooltips="1" connect="1" arrows="1" fold="1" page="1" pageScale="1" pageWidth="827" pageHeight="1169" math="0" shadow="0">
      <root>
        <mxCell id="0" />
        <mxCell id="1" parent="0" />
        <mxCell id="tM9AjMX9FEMlV-WrsyFi-72" style="rounded=0;orthogonalLoop=1;jettySize=auto;html=1;endArrow=diamondThin;endFill=1;startSize=10;endSize=10;edgeStyle=elbowEdgeStyle;" edge="1" parent="1" source="1qKeg151M8cwf301e_Fj-52" target="tM9AjMX9FEMlV-WrsyFi-60">
          <mxGeometry relative="1" as="geometry" />
        </mxCell>
        <mxCell id="tM9AjMX9FEMlV-WrsyFi-79" style="rounded=0;orthogonalLoop=1;jettySize=auto;html=1;endArrow=block;endFill=0;endSize=10;startSize=10;" edge="1" parent="1" source="1qKeg151M8cwf301e_Fj-52" target="tM9AjMX9FEMlV-WrsyFi-75">
          <mxGeometry relative="1" as="geometry" />
        </mxCell>
        <mxCell id="1qKeg151M8cwf301e_Fj-52" value="Professor" style="swimlane;fontStyle=1;align=center;verticalAlign=top;childLayout=stackLayout;horizontal=1;startSize=26;horizontalStack=0;resizeParent=1;resizeParentMax=0;resizeLast=0;collapsible=1;marginBottom=0;whiteSpace=wrap;html=1;" parent="1" vertex="1">
          <mxGeometry x="390" y="420" width="387" height="112" as="geometry" />
        </mxCell>
        <mxCell id="1qKeg151M8cwf301e_Fj-53" value="+&amp;nbsp;" style="text;strokeColor=none;fillColor=none;align=left;verticalAlign=top;spacingLeft=4;spacingRight=4;overflow=hidden;rotatable=0;points=[[0,0.5],[1,0.5]];portConstraint=eastwest;whiteSpace=wrap;html=1;" parent="1qKeg151M8cwf301e_Fj-52" vertex="1">
          <mxGeometry y="26" width="387" height="26" as="geometry" />
        </mxCell>
        <mxCell id="1qKeg151M8cwf301e_Fj-54" value="" style="line;strokeWidth=1;fillColor=none;align=left;verticalAlign=middle;spacingTop=-1;spacingLeft=3;spacingRight=3;rotatable=0;labelPosition=right;points=[];portConstraint=eastwest;strokeColor=inherit;" parent="1qKeg151M8cwf301e_Fj-52" vertex="1">
          <mxGeometry y="52" width="387" height="8" as="geometry" />
        </mxCell>
        <mxCell id="1qKeg151M8cwf301e_Fj-55" value="+ salvar(login: String, senha: String, profile: EnumProfile): Professor" style="text;strokeColor=none;fillColor=none;align=left;verticalAlign=top;spacingLeft=4;spacingRight=4;overflow=hidden;rotatable=0;points=[[0,0.5],[1,0.5]];portConstraint=eastwest;whiteSpace=wrap;html=1;" parent="1qKeg151M8cwf301e_Fj-52" vertex="1">
          <mxGeometry y="60" width="387" height="26" as="geometry" />
        </mxCell>
        <mxCell id="ReTC1t9gaDuCAg2pE0_8-2" value="+ consultarAlunosPorDisciplina(disciplina:Disciplina): List&amp;lt;Aluno&amp;gt;" style="text;strokeColor=none;fillColor=none;align=left;verticalAlign=top;spacingLeft=4;spacingRight=4;overflow=hidden;rotatable=0;points=[[0,0.5],[1,0.5]];portConstraint=eastwest;whiteSpace=wrap;html=1;" parent="1qKeg151M8cwf301e_Fj-52" vertex="1">
          <mxGeometry y="86" width="387" height="26" as="geometry" />
        </mxCell>
        <mxCell id="tM9AjMX9FEMlV-WrsyFi-78" style="rounded=0;orthogonalLoop=1;jettySize=auto;html=1;endArrow=block;endFill=0;endSize=10;startSize=10;" edge="1" parent="1" source="ReTC1t9gaDuCAg2pE0_8-4" target="tM9AjMX9FEMlV-WrsyFi-75">
          <mxGeometry relative="1" as="geometry" />
        </mxCell>
        <mxCell id="ReTC1t9gaDuCAg2pE0_8-4" value="Aluno" style="swimlane;fontStyle=1;align=center;verticalAlign=top;childLayout=stackLayout;horizontal=1;startSize=26;horizontalStack=0;resizeParent=1;resizeParentMax=0;resizeLast=0;collapsible=1;marginBottom=0;whiteSpace=wrap;html=1;" parent="1" vertex="1">
          <mxGeometry x="387" y="180" width="440" height="112" as="geometry" />
        </mxCell>
        <mxCell id="ReTC1t9gaDuCAg2pE0_8-15" value="-" style="text;strokeColor=none;fillColor=none;align=left;verticalAlign=top;spacingLeft=4;spacingRight=4;overflow=hidden;rotatable=0;points=[[0,0.5],[1,0.5]];portConstraint=eastwest;whiteSpace=wrap;html=1;" parent="ReTC1t9gaDuCAg2pE0_8-4" vertex="1">
          <mxGeometry y="26" width="440" height="26" as="geometry" />
        </mxCell>
        <mxCell id="ReTC1t9gaDuCAg2pE0_8-6" value="" style="line;strokeWidth=1;fillColor=none;align=left;verticalAlign=middle;spacingTop=-1;spacingLeft=3;spacingRight=3;rotatable=0;labelPosition=right;points=[];portConstraint=eastwest;strokeColor=inherit;" parent="ReTC1t9gaDuCAg2pE0_8-4" vertex="1">
          <mxGeometry y="52" width="440" height="8" as="geometry" />
        </mxCell>
        <mxCell id="ReTC1t9gaDuCAg2pE0_8-7" value="+ salvar(login: String, senha: String, profile: EnumProfile): Aluno" style="text;strokeColor=none;fillColor=none;align=left;verticalAlign=top;spacingLeft=4;spacingRight=4;overflow=hidden;rotatable=0;points=[[0,0.5],[1,0.5]];portConstraint=eastwest;whiteSpace=wrap;html=1;" parent="ReTC1t9gaDuCAg2pE0_8-4" vertex="1">
          <mxGeometry y="60" width="440" height="26" as="geometry" />
        </mxCell>
        <mxCell id="PWynypVQdvxwtiXnUu9a-48" value="+ matricular(): boolean" style="text;strokeColor=none;fillColor=none;align=left;verticalAlign=top;spacingLeft=4;spacingRight=4;overflow=hidden;rotatable=0;points=[[0,0.5],[1,0.5]];portConstraint=eastwest;whiteSpace=wrap;html=1;" parent="ReTC1t9gaDuCAg2pE0_8-4" vertex="1">
          <mxGeometry y="86" width="440" height="26" as="geometry" />
        </mxCell>
        <mxCell id="PWynypVQdvxwtiXnUu9a-7" style="rounded=0;orthogonalLoop=1;jettySize=auto;html=1;endArrow=none;endFill=0;" parent="1" source="ReTC1t9gaDuCAg2pE0_8-9" target="PWynypVQdvxwtiXnUu9a-6" edge="1">
          <mxGeometry relative="1" as="geometry" />
        </mxCell>
        <mxCell id="tM9AjMX9FEMlV-WrsyFi-29" style="edgeStyle=orthogonalEdgeStyle;rounded=0;orthogonalLoop=1;jettySize=auto;html=1;endArrow=none;endFill=0;" edge="1" parent="1" source="ReTC1t9gaDuCAg2pE0_8-16" target="PWynypVQdvxwtiXnUu9a-9">
          <mxGeometry relative="1" as="geometry" />
        </mxCell>
        <mxCell id="ReTC1t9gaDuCAg2pE0_8-16" value="&amp;lt;&amp;lt;enumeration&amp;gt;&amp;gt;&lt;br&gt;&lt;b&gt;EnumTipoDisciplina&lt;/b&gt;" style="swimlane;fontStyle=0;align=center;verticalAlign=top;childLayout=stackLayout;horizontal=1;startSize=40;horizontalStack=0;resizeParent=1;resizeParentMax=0;resizeLast=0;collapsible=0;marginBottom=0;html=1;whiteSpace=wrap;" parent="1" vertex="1">
          <mxGeometry x="-1130" y="595" width="140" height="100" as="geometry" />
        </mxCell>
        <mxCell id="ReTC1t9gaDuCAg2pE0_8-17" value="OBRIGATORIA" style="text;html=1;strokeColor=none;fillColor=none;align=left;verticalAlign=middle;spacingLeft=4;spacingRight=4;overflow=hidden;rotatable=0;points=[[0,0.5],[1,0.5]];portConstraint=eastwest;whiteSpace=wrap;" parent="ReTC1t9gaDuCAg2pE0_8-16" vertex="1">
          <mxGeometry y="40" width="140" height="30" as="geometry" />
        </mxCell>
        <mxCell id="ReTC1t9gaDuCAg2pE0_8-18" value="OPTATIVA" style="text;html=1;strokeColor=none;fillColor=none;align=left;verticalAlign=middle;spacingLeft=4;spacingRight=4;overflow=hidden;rotatable=0;points=[[0,0.5],[1,0.5]];portConstraint=eastwest;whiteSpace=wrap;" parent="ReTC1t9gaDuCAg2pE0_8-16" vertex="1">
          <mxGeometry y="70" width="140" height="30" as="geometry" />
        </mxCell>
        <mxCell id="PWynypVQdvxwtiXnUu9a-6" value="&lt;p style=&quot;margin:0px;margin-top:4px;text-align:center;text-decoration:underline;&quot;&gt;&lt;b&gt;DAO&amp;lt;T&amp;gt;&lt;/b&gt;&lt;/p&gt;&lt;hr&gt;&lt;p style=&quot;margin:0px;margin-left:8px;&quot;&gt;cadastrar(object: T): T&lt;/p&gt;&lt;p style=&quot;margin:0px;margin-left:8px;&quot;&gt;editar(object: T): T&lt;/p&gt;&lt;p style=&quot;margin:0px;margin-left:8px;&quot;&gt;buscar(string:String): T&lt;/p&gt;&lt;p style=&quot;margin:0px;margin-left:8px;&quot;&gt;excluir(object: T): T&lt;/p&gt;&lt;p style=&quot;margin:0px;margin-left:8px;&quot;&gt;buscarTodos:(object: T): List&amp;lt;T&amp;gt;&lt;/p&gt;" style="verticalAlign=top;align=left;overflow=fill;fontSize=12;fontFamily=Helvetica;html=1;whiteSpace=wrap;" parent="1" vertex="1">
          <mxGeometry x="940" y="-131" width="200" height="120" as="geometry" />
        </mxCell>
        <mxCell id="tM9AjMX9FEMlV-WrsyFi-26" style="edgeStyle=orthogonalEdgeStyle;rounded=0;orthogonalLoop=1;jettySize=auto;html=1;endArrow=diamondThin;endFill=1;startArrow=none;startFill=0;endSize=10;startSize=10;" edge="1" parent="1" source="PWynypVQdvxwtiXnUu9a-9" target="tM9AjMX9FEMlV-WrsyFi-12">
          <mxGeometry relative="1" as="geometry" />
        </mxCell>
        <mxCell id="tM9AjMX9FEMlV-WrsyFi-59" style="rounded=0;orthogonalLoop=1;jettySize=auto;html=1;endArrow=diamondThin;endFill=1;endSize=10;startSize=10;" edge="1" parent="1" source="tM9AjMX9FEMlV-WrsyFi-60" target="tM9AjMX9FEMlV-WrsyFi-41">
          <mxGeometry relative="1" as="geometry">
            <mxPoint x="-180" y="760" as="sourcePoint" />
          </mxGeometry>
        </mxCell>
        <mxCell id="tM9AjMX9FEMlV-WrsyFi-70" style="edgeStyle=orthogonalEdgeStyle;rounded=0;orthogonalLoop=1;jettySize=auto;html=1;endArrow=none;endFill=0;startArrow=block;startFill=0;endSize=10;startSize=10;exitX=0.464;exitY=0.971;exitDx=0;exitDy=0;exitPerimeter=0;" edge="1" parent="1" source="PWynypVQdvxwtiXnUu9a-13" target="tM9AjMX9FEMlV-WrsyFi-68">
          <mxGeometry relative="1" as="geometry" />
        </mxCell>
        <mxCell id="PWynypVQdvxwtiXnUu9a-9" value="Disciplina" style="swimlane;fontStyle=1;align=center;verticalAlign=top;childLayout=stackLayout;horizontal=1;startSize=26;horizontalStack=0;resizeParent=1;resizeParentMax=0;resizeLast=0;collapsible=1;marginBottom=0;whiteSpace=wrap;html=1;" parent="1" vertex="1">
          <mxGeometry x="-870" y="550" width="450" height="190" as="geometry" />
        </mxCell>
        <mxCell id="PWynypVQdvxwtiXnUu9a-28" value="-&amp;nbsp;&lt;u&gt;Id:&lt;/u&gt;&amp;nbsp;bigInt" style="text;strokeColor=none;fillColor=none;align=left;verticalAlign=top;spacingLeft=4;spacingRight=4;overflow=hidden;rotatable=0;points=[[0,0.5],[1,0.5]];portConstraint=eastwest;whiteSpace=wrap;html=1;" parent="PWynypVQdvxwtiXnUu9a-9" vertex="1">
          <mxGeometry y="26" width="450" height="26" as="geometry" />
        </mxCell>
        <mxCell id="PWynypVQdvxwtiXnUu9a-10" value="- Nome: String" style="text;strokeColor=none;fillColor=none;align=left;verticalAlign=top;spacingLeft=4;spacingRight=4;overflow=hidden;rotatable=0;points=[[0,0.5],[1,0.5]];portConstraint=eastwest;whiteSpace=wrap;html=1;" parent="PWynypVQdvxwtiXnUu9a-9" vertex="1">
          <mxGeometry y="52" width="450" height="26" as="geometry" />
        </mxCell>
        <mxCell id="PWynypVQdvxwtiXnUu9a-11" value="- credito: int" style="text;strokeColor=none;fillColor=none;align=left;verticalAlign=top;spacingLeft=4;spacingRight=4;overflow=hidden;rotatable=0;points=[[0,0.5],[1,0.5]];portConstraint=eastwest;whiteSpace=wrap;html=1;" parent="PWynypVQdvxwtiXnUu9a-9" vertex="1">
          <mxGeometry y="78" width="450" height="26" as="geometry" />
        </mxCell>
        <mxCell id="PWynypVQdvxwtiXnUu9a-16" value="- valorCustoHora: BigDecimal" style="text;strokeColor=none;fillColor=none;align=left;verticalAlign=top;spacingLeft=4;spacingRight=4;overflow=hidden;rotatable=0;points=[[0,0.5],[1,0.5]];portConstraint=eastwest;whiteSpace=wrap;html=1;" parent="PWynypVQdvxwtiXnUu9a-9" vertex="1">
          <mxGeometry y="104" width="450" height="26" as="geometry" />
        </mxCell>
        <mxCell id="tM9AjMX9FEMlV-WrsyFi-35" value="- tipo: EnumTipoDisciplina" style="text;strokeColor=none;fillColor=none;align=left;verticalAlign=top;spacingLeft=4;spacingRight=4;overflow=hidden;rotatable=0;points=[[0,0.5],[1,0.5]];portConstraint=eastwest;whiteSpace=wrap;html=1;" vertex="1" parent="PWynypVQdvxwtiXnUu9a-9">
          <mxGeometry y="130" width="450" height="26" as="geometry" />
        </mxCell>
        <mxCell id="PWynypVQdvxwtiXnUu9a-12" value="" style="line;strokeWidth=1;fillColor=none;align=left;verticalAlign=middle;spacingTop=-1;spacingLeft=3;spacingRight=3;rotatable=0;labelPosition=right;points=[];portConstraint=eastwest;strokeColor=inherit;" parent="PWynypVQdvxwtiXnUu9a-9" vertex="1">
          <mxGeometry y="156" width="450" height="8" as="geometry" />
        </mxCell>
        <mxCell id="PWynypVQdvxwtiXnUu9a-13" value="+&amp;nbsp;" style="text;strokeColor=none;fillColor=none;align=left;verticalAlign=top;spacingLeft=4;spacingRight=4;overflow=hidden;rotatable=0;points=[[0,0.5],[1,0.5]];portConstraint=eastwest;whiteSpace=wrap;html=1;" parent="PWynypVQdvxwtiXnUu9a-9" vertex="1">
          <mxGeometry y="164" width="450" height="26" as="geometry" />
        </mxCell>
        <mxCell id="tM9AjMX9FEMlV-WrsyFi-25" style="edgeStyle=orthogonalEdgeStyle;rounded=0;orthogonalLoop=1;jettySize=auto;html=1;entryX=0.5;entryY=0;entryDx=0;entryDy=0;endArrow=none;endFill=0;startArrow=none;startFill=0;endSize=10;startSize=10;" edge="1" parent="1" source="tM9AjMX9FEMlV-WrsyFi-1" target="tM9AjMX9FEMlV-WrsyFi-12">
          <mxGeometry relative="1" as="geometry" />
        </mxCell>
        <mxCell id="tM9AjMX9FEMlV-WrsyFi-40" style="rounded=0;orthogonalLoop=1;jettySize=auto;html=1;endArrow=none;endFill=0;startArrow=diamondThin;startFill=1;endSize=10;startSize=10;" edge="1" parent="1" source="tM9AjMX9FEMlV-WrsyFi-1" target="ReTC1t9gaDuCAg2pE0_8-9">
          <mxGeometry relative="1" as="geometry" />
        </mxCell>
        <mxCell id="tM9AjMX9FEMlV-WrsyFi-53" style="rounded=0;orthogonalLoop=1;jettySize=auto;html=1;endArrow=none;endFill=0;startArrow=diamondThin;startFill=1;endSize=10;startSize=10;" edge="1" parent="1" source="tM9AjMX9FEMlV-WrsyFi-1" target="tM9AjMX9FEMlV-WrsyFi-47">
          <mxGeometry relative="1" as="geometry" />
        </mxCell>
        <mxCell id="tM9AjMX9FEMlV-WrsyFi-1" value="Universidade" style="swimlane;fontStyle=1;align=center;verticalAlign=top;childLayout=stackLayout;horizontal=1;startSize=26;horizontalStack=0;resizeParent=1;resizeParentMax=0;resizeLast=0;collapsible=1;marginBottom=0;whiteSpace=wrap;html=1;" vertex="1" parent="1">
          <mxGeometry x="-270" y="-140" width="450" height="138" as="geometry" />
        </mxCell>
        <mxCell id="tM9AjMX9FEMlV-WrsyFi-2" value="- cursos: Hash&amp;lt;String, Curso&amp;gt;" style="text;strokeColor=none;fillColor=none;align=left;verticalAlign=top;spacingLeft=4;spacingRight=4;overflow=hidden;rotatable=0;points=[[0,0.5],[1,0.5]];portConstraint=eastwest;whiteSpace=wrap;html=1;" vertex="1" parent="tM9AjMX9FEMlV-WrsyFi-1">
          <mxGeometry y="26" width="450" height="26" as="geometry" />
        </mxCell>
        <mxCell id="tM9AjMX9FEMlV-WrsyFi-3" value="- matriculas[]: HashMap&amp;lt;id, Matricula&amp;gt;" style="text;strokeColor=none;fillColor=none;align=left;verticalAlign=top;spacingLeft=4;spacingRight=4;overflow=hidden;rotatable=0;points=[[0,0.5],[1,0.5]];portConstraint=eastwest;whiteSpace=wrap;html=1;" vertex="1" parent="tM9AjMX9FEMlV-WrsyFi-1">
          <mxGeometry y="52" width="450" height="26" as="geometry" />
        </mxCell>
        <mxCell id="tM9AjMX9FEMlV-WrsyFi-4" style="text;strokeColor=none;fillColor=none;align=left;verticalAlign=top;spacingLeft=4;spacingRight=4;overflow=hidden;rotatable=0;points=[[0,0.5],[1,0.5]];portConstraint=eastwest;whiteSpace=wrap;html=1;" vertex="1" parent="tM9AjMX9FEMlV-WrsyFi-1">
          <mxGeometry y="78" width="450" height="26" as="geometry" />
        </mxCell>
        <mxCell id="tM9AjMX9FEMlV-WrsyFi-5" value="" style="line;strokeWidth=1;fillColor=none;align=left;verticalAlign=middle;spacingTop=-1;spacingLeft=3;spacingRight=3;rotatable=0;labelPosition=right;points=[];portConstraint=eastwest;strokeColor=inherit;" vertex="1" parent="tM9AjMX9FEMlV-WrsyFi-1">
          <mxGeometry y="104" width="450" height="8" as="geometry" />
        </mxCell>
        <mxCell id="tM9AjMX9FEMlV-WrsyFi-6" value="+ salvar(login: String, senha: String, profile: EnumProfile): SecretariaAcademica" style="text;strokeColor=none;fillColor=none;align=left;verticalAlign=top;spacingLeft=4;spacingRight=4;overflow=hidden;rotatable=0;points=[[0,0.5],[1,0.5]];portConstraint=eastwest;whiteSpace=wrap;html=1;" vertex="1" parent="tM9AjMX9FEMlV-WrsyFi-1">
          <mxGeometry y="112" width="450" height="26" as="geometry" />
        </mxCell>
        <mxCell id="tM9AjMX9FEMlV-WrsyFi-12" value="Curso" style="swimlane;fontStyle=1;align=center;verticalAlign=top;childLayout=stackLayout;horizontal=1;startSize=26;horizontalStack=0;resizeParent=1;resizeParentMax=0;resizeLast=0;collapsible=1;marginBottom=0;whiteSpace=wrap;html=1;" vertex="1" parent="1">
          <mxGeometry x="-870" y="177" width="450" height="190" as="geometry" />
        </mxCell>
        <mxCell id="tM9AjMX9FEMlV-WrsyFi-13" value="-&amp;nbsp;&lt;u&gt;Id:&lt;/u&gt;&amp;nbsp;bigInt" style="text;strokeColor=none;fillColor=none;align=left;verticalAlign=top;spacingLeft=4;spacingRight=4;overflow=hidden;rotatable=0;points=[[0,0.5],[1,0.5]];portConstraint=eastwest;whiteSpace=wrap;html=1;" vertex="1" parent="tM9AjMX9FEMlV-WrsyFi-12">
          <mxGeometry y="26" width="450" height="26" as="geometry" />
        </mxCell>
        <mxCell id="tM9AjMX9FEMlV-WrsyFi-14" value="- Nome: String" style="text;strokeColor=none;fillColor=none;align=left;verticalAlign=top;spacingLeft=4;spacingRight=4;overflow=hidden;rotatable=0;points=[[0,0.5],[1,0.5]];portConstraint=eastwest;whiteSpace=wrap;html=1;" vertex="1" parent="tM9AjMX9FEMlV-WrsyFi-12">
          <mxGeometry y="52" width="450" height="26" as="geometry" />
        </mxCell>
        <mxCell id="tM9AjMX9FEMlV-WrsyFi-16" value="- disciplinas[]: Disciplina" style="text;strokeColor=none;fillColor=none;align=left;verticalAlign=top;spacingLeft=4;spacingRight=4;overflow=hidden;rotatable=0;points=[[0,0.5],[1,0.5]];portConstraint=eastwest;whiteSpace=wrap;html=1;" vertex="1" parent="tM9AjMX9FEMlV-WrsyFi-12">
          <mxGeometry y="78" width="450" height="26" as="geometry" />
        </mxCell>
        <mxCell id="tM9AjMX9FEMlV-WrsyFi-17" value="" style="line;strokeWidth=1;fillColor=none;align=left;verticalAlign=middle;spacingTop=-1;spacingLeft=3;spacingRight=3;rotatable=0;labelPosition=right;points=[];portConstraint=eastwest;strokeColor=inherit;" vertex="1" parent="tM9AjMX9FEMlV-WrsyFi-12">
          <mxGeometry y="104" width="450" height="8" as="geometry" />
        </mxCell>
        <mxCell id="tM9AjMX9FEMlV-WrsyFi-18" value="+ adicionarDisciplina(disc: Disciplna): Disciplina" style="text;strokeColor=none;fillColor=none;align=left;verticalAlign=top;spacingLeft=4;spacingRight=4;overflow=hidden;rotatable=0;points=[[0,0.5],[1,0.5]];portConstraint=eastwest;whiteSpace=wrap;html=1;" vertex="1" parent="tM9AjMX9FEMlV-WrsyFi-12">
          <mxGeometry y="112" width="450" height="26" as="geometry" />
        </mxCell>
        <mxCell id="tM9AjMX9FEMlV-WrsyFi-38" value="+ removerDisciplina(id: bigint): Disciplina" style="text;strokeColor=none;fillColor=none;align=left;verticalAlign=top;spacingLeft=4;spacingRight=4;overflow=hidden;rotatable=0;points=[[0,0.5],[1,0.5]];portConstraint=eastwest;whiteSpace=wrap;html=1;" vertex="1" parent="tM9AjMX9FEMlV-WrsyFi-12">
          <mxGeometry y="138" width="450" height="26" as="geometry" />
        </mxCell>
        <mxCell id="tM9AjMX9FEMlV-WrsyFi-22" value="+ listarDisciplnas(): List&amp;lt;Disciplina&amp;gt;" style="text;strokeColor=none;fillColor=none;align=left;verticalAlign=top;spacingLeft=4;spacingRight=4;overflow=hidden;rotatable=0;points=[[0,0.5],[1,0.5]];portConstraint=eastwest;whiteSpace=wrap;html=1;" vertex="1" parent="tM9AjMX9FEMlV-WrsyFi-12">
          <mxGeometry y="164" width="450" height="26" as="geometry" />
        </mxCell>
        <mxCell id="tM9AjMX9FEMlV-WrsyFi-77" style="rounded=0;orthogonalLoop=1;jettySize=auto;html=1;endArrow=block;endFill=0;endSize=10;startSize=10;" edge="1" parent="1" source="ReTC1t9gaDuCAg2pE0_8-9" target="tM9AjMX9FEMlV-WrsyFi-75">
          <mxGeometry relative="1" as="geometry" />
        </mxCell>
        <mxCell id="ReTC1t9gaDuCAg2pE0_8-9" value="SecretariaAcademica" style="swimlane;fontStyle=1;align=center;verticalAlign=top;childLayout=stackLayout;horizontal=1;startSize=26;horizontalStack=0;resizeParent=1;resizeParentMax=0;resizeLast=0;collapsible=1;marginBottom=0;whiteSpace=wrap;html=1;" parent="1" vertex="1">
          <mxGeometry x="390" y="-205" width="440" height="268" as="geometry" />
        </mxCell>
        <mxCell id="ReTC1t9gaDuCAg2pE0_8-10" value="-" style="text;strokeColor=none;fillColor=none;align=left;verticalAlign=top;spacingLeft=4;spacingRight=4;overflow=hidden;rotatable=0;points=[[0,0.5],[1,0.5]];portConstraint=eastwest;whiteSpace=wrap;html=1;" parent="ReTC1t9gaDuCAg2pE0_8-9" vertex="1">
          <mxGeometry y="26" width="440" height="26" as="geometry" />
        </mxCell>
        <mxCell id="ReTC1t9gaDuCAg2pE0_8-33" style="text;strokeColor=none;fillColor=none;align=left;verticalAlign=top;spacingLeft=4;spacingRight=4;overflow=hidden;rotatable=0;points=[[0,0.5],[1,0.5]];portConstraint=eastwest;whiteSpace=wrap;html=1;" parent="ReTC1t9gaDuCAg2pE0_8-9" vertex="1">
          <mxGeometry y="52" width="440" height="26" as="geometry" />
        </mxCell>
        <mxCell id="ReTC1t9gaDuCAg2pE0_8-32" style="text;strokeColor=none;fillColor=none;align=left;verticalAlign=top;spacingLeft=4;spacingRight=4;overflow=hidden;rotatable=0;points=[[0,0.5],[1,0.5]];portConstraint=eastwest;whiteSpace=wrap;html=1;" parent="ReTC1t9gaDuCAg2pE0_8-9" vertex="1">
          <mxGeometry y="78" width="440" height="26" as="geometry" />
        </mxCell>
        <mxCell id="ReTC1t9gaDuCAg2pE0_8-11" value="" style="line;strokeWidth=1;fillColor=none;align=left;verticalAlign=middle;spacingTop=-1;spacingLeft=3;spacingRight=3;rotatable=0;labelPosition=right;points=[];portConstraint=eastwest;strokeColor=inherit;" parent="ReTC1t9gaDuCAg2pE0_8-9" vertex="1">
          <mxGeometry y="104" width="440" height="8" as="geometry" />
        </mxCell>
        <mxCell id="ReTC1t9gaDuCAg2pE0_8-12" value="+ salvar(login: String, senha: String, profile: EnumProfile): SecretariaAcademica" style="text;strokeColor=none;fillColor=none;align=left;verticalAlign=top;spacingLeft=4;spacingRight=4;overflow=hidden;rotatable=0;points=[[0,0.5],[1,0.5]];portConstraint=eastwest;whiteSpace=wrap;html=1;" parent="ReTC1t9gaDuCAg2pE0_8-9" vertex="1">
          <mxGeometry y="112" width="440" height="26" as="geometry" />
        </mxCell>
        <mxCell id="PWynypVQdvxwtiXnUu9a-1" value="+ cadastrar(object: T): T" style="text;strokeColor=none;fillColor=none;align=left;verticalAlign=top;spacingLeft=4;spacingRight=4;overflow=hidden;rotatable=0;points=[[0,0.5],[1,0.5]];portConstraint=eastwest;whiteSpace=wrap;html=1;" parent="ReTC1t9gaDuCAg2pE0_8-9" vertex="1">
          <mxGeometry y="138" width="440" height="26" as="geometry" />
        </mxCell>
        <mxCell id="PWynypVQdvxwtiXnUu9a-3" value="+ editar(object: T): T" style="text;strokeColor=none;fillColor=none;align=left;verticalAlign=top;spacingLeft=4;spacingRight=4;overflow=hidden;rotatable=0;points=[[0,0.5],[1,0.5]];portConstraint=eastwest;whiteSpace=wrap;html=1;" parent="ReTC1t9gaDuCAg2pE0_8-9" vertex="1">
          <mxGeometry y="164" width="440" height="26" as="geometry" />
        </mxCell>
        <mxCell id="PWynypVQdvxwtiXnUu9a-4" value="+ buscar(object: T): T" style="text;strokeColor=none;fillColor=none;align=left;verticalAlign=top;spacingLeft=4;spacingRight=4;overflow=hidden;rotatable=0;points=[[0,0.5],[1,0.5]];portConstraint=eastwest;whiteSpace=wrap;html=1;" parent="ReTC1t9gaDuCAg2pE0_8-9" vertex="1">
          <mxGeometry y="190" width="440" height="26" as="geometry" />
        </mxCell>
        <mxCell id="PWynypVQdvxwtiXnUu9a-5" value="+ excluir(object: T): T" style="text;strokeColor=none;fillColor=none;align=left;verticalAlign=top;spacingLeft=4;spacingRight=4;overflow=hidden;rotatable=0;points=[[0,0.5],[1,0.5]];portConstraint=eastwest;whiteSpace=wrap;html=1;" parent="ReTC1t9gaDuCAg2pE0_8-9" vertex="1">
          <mxGeometry y="216" width="440" height="26" as="geometry" />
        </mxCell>
        <mxCell id="PWynypVQdvxwtiXnUu9a-8" value="+ buscarTodos(object: T): List&amp;lt;T&amp;gt;" style="text;strokeColor=none;fillColor=none;align=left;verticalAlign=top;spacingLeft=4;spacingRight=4;overflow=hidden;rotatable=0;points=[[0,0.5],[1,0.5]];portConstraint=eastwest;whiteSpace=wrap;html=1;" parent="ReTC1t9gaDuCAg2pE0_8-9" vertex="1">
          <mxGeometry y="242" width="440" height="26" as="geometry" />
        </mxCell>
        <mxCell id="tM9AjMX9FEMlV-WrsyFi-41" value="Semestre" style="swimlane;fontStyle=1;align=center;verticalAlign=top;childLayout=stackLayout;horizontal=1;startSize=26;horizontalStack=0;resizeParent=1;resizeParentMax=0;resizeLast=0;collapsible=1;marginBottom=0;whiteSpace=wrap;html=1;" vertex="1" parent="1">
          <mxGeometry x="-270" y="430" width="450" height="138" as="geometry" />
        </mxCell>
        <mxCell id="tM9AjMX9FEMlV-WrsyFi-42" value="- ano: int" style="text;strokeColor=none;fillColor=none;align=left;verticalAlign=top;spacingLeft=4;spacingRight=4;overflow=hidden;rotatable=0;points=[[0,0.5],[1,0.5]];portConstraint=eastwest;whiteSpace=wrap;html=1;" vertex="1" parent="tM9AjMX9FEMlV-WrsyFi-41">
          <mxGeometry y="26" width="450" height="26" as="geometry" />
        </mxCell>
        <mxCell id="tM9AjMX9FEMlV-WrsyFi-43" value="- semestre: int" style="text;strokeColor=none;fillColor=none;align=left;verticalAlign=top;spacingLeft=4;spacingRight=4;overflow=hidden;rotatable=0;points=[[0,0.5],[1,0.5]];portConstraint=eastwest;whiteSpace=wrap;html=1;" vertex="1" parent="tM9AjMX9FEMlV-WrsyFi-41">
          <mxGeometry y="52" width="450" height="26" as="geometry" />
        </mxCell>
        <mxCell id="tM9AjMX9FEMlV-WrsyFi-44" value="- disciplinasMatriculadas: HashMap&amp;lt;String, DisciplinaOfertada&amp;gt;" style="text;strokeColor=none;fillColor=none;align=left;verticalAlign=top;spacingLeft=4;spacingRight=4;overflow=hidden;rotatable=0;points=[[0,0.5],[1,0.5]];portConstraint=eastwest;whiteSpace=wrap;html=1;" vertex="1" parent="tM9AjMX9FEMlV-WrsyFi-41">
          <mxGeometry y="78" width="450" height="26" as="geometry" />
        </mxCell>
        <mxCell id="tM9AjMX9FEMlV-WrsyFi-45" value="" style="line;strokeWidth=1;fillColor=none;align=left;verticalAlign=middle;spacingTop=-1;spacingLeft=3;spacingRight=3;rotatable=0;labelPosition=right;points=[];portConstraint=eastwest;strokeColor=inherit;" vertex="1" parent="tM9AjMX9FEMlV-WrsyFi-41">
          <mxGeometry y="104" width="450" height="8" as="geometry" />
        </mxCell>
        <mxCell id="tM9AjMX9FEMlV-WrsyFi-46" value="+ salvar(login: String, senha: String, profile: EnumProfile): SecretariaAcademica" style="text;strokeColor=none;fillColor=none;align=left;verticalAlign=top;spacingLeft=4;spacingRight=4;overflow=hidden;rotatable=0;points=[[0,0.5],[1,0.5]];portConstraint=eastwest;whiteSpace=wrap;html=1;" vertex="1" parent="tM9AjMX9FEMlV-WrsyFi-41">
          <mxGeometry y="112" width="450" height="26" as="geometry" />
        </mxCell>
        <mxCell id="tM9AjMX9FEMlV-WrsyFi-56" style="rounded=0;orthogonalLoop=1;jettySize=auto;html=1;endArrow=none;endFill=0;startArrow=diamondThin;startFill=1;endSize=10;startSize=10;" edge="1" parent="1" source="tM9AjMX9FEMlV-WrsyFi-47" target="ReTC1t9gaDuCAg2pE0_8-4">
          <mxGeometry relative="1" as="geometry" />
        </mxCell>
        <mxCell id="tM9AjMX9FEMlV-WrsyFi-58" style="rounded=0;orthogonalLoop=1;jettySize=auto;html=1;endArrow=none;endFill=0;endSize=10;startSize=10;startArrow=diamondThin;startFill=1;" edge="1" parent="1" source="tM9AjMX9FEMlV-WrsyFi-47" target="tM9AjMX9FEMlV-WrsyFi-12">
          <mxGeometry relative="1" as="geometry" />
        </mxCell>
        <mxCell id="tM9AjMX9FEMlV-WrsyFi-73" style="edgeStyle=orthogonalEdgeStyle;rounded=0;orthogonalLoop=1;jettySize=auto;html=1;entryX=0.5;entryY=0;entryDx=0;entryDy=0;endArrow=none;endFill=0;" edge="1" parent="1" source="tM9AjMX9FEMlV-WrsyFi-47" target="tM9AjMX9FEMlV-WrsyFi-41">
          <mxGeometry relative="1" as="geometry" />
        </mxCell>
        <mxCell id="tM9AjMX9FEMlV-WrsyFi-47" value="Matricula" style="swimlane;fontStyle=1;align=center;verticalAlign=top;childLayout=stackLayout;horizontal=1;startSize=26;horizontalStack=0;resizeParent=1;resizeParentMax=0;resizeLast=0;collapsible=1;marginBottom=0;whiteSpace=wrap;html=1;" vertex="1" parent="1">
          <mxGeometry x="-270" y="190" width="450" height="164" as="geometry" />
        </mxCell>
        <mxCell id="tM9AjMX9FEMlV-WrsyFi-55" value="- &lt;u&gt;id&lt;/u&gt;: Bigint" style="text;strokeColor=none;fillColor=none;align=left;verticalAlign=top;spacingLeft=4;spacingRight=4;overflow=hidden;rotatable=0;points=[[0,0.5],[1,0.5]];portConstraint=eastwest;whiteSpace=wrap;html=1;" vertex="1" parent="tM9AjMX9FEMlV-WrsyFi-47">
          <mxGeometry y="26" width="450" height="26" as="geometry" />
        </mxCell>
        <mxCell id="tM9AjMX9FEMlV-WrsyFi-48" value="- aluno: Aluno" style="text;strokeColor=none;fillColor=none;align=left;verticalAlign=top;spacingLeft=4;spacingRight=4;overflow=hidden;rotatable=0;points=[[0,0.5],[1,0.5]];portConstraint=eastwest;whiteSpace=wrap;html=1;" vertex="1" parent="tM9AjMX9FEMlV-WrsyFi-47">
          <mxGeometry y="52" width="450" height="26" as="geometry" />
        </mxCell>
        <mxCell id="tM9AjMX9FEMlV-WrsyFi-49" value="- curso: Curso" style="text;strokeColor=none;fillColor=none;align=left;verticalAlign=top;spacingLeft=4;spacingRight=4;overflow=hidden;rotatable=0;points=[[0,0.5],[1,0.5]];portConstraint=eastwest;whiteSpace=wrap;html=1;" vertex="1" parent="tM9AjMX9FEMlV-WrsyFi-47">
          <mxGeometry y="78" width="450" height="26" as="geometry" />
        </mxCell>
        <mxCell id="tM9AjMX9FEMlV-WrsyFi-50" value="- semestres: HashMap&amp;lt;String, Semestre&amp;gt;" style="text;strokeColor=none;fillColor=none;align=left;verticalAlign=top;spacingLeft=4;spacingRight=4;overflow=hidden;rotatable=0;points=[[0,0.5],[1,0.5]];portConstraint=eastwest;whiteSpace=wrap;html=1;" vertex="1" parent="tM9AjMX9FEMlV-WrsyFi-47">
          <mxGeometry y="104" width="450" height="26" as="geometry" />
        </mxCell>
        <mxCell id="tM9AjMX9FEMlV-WrsyFi-51" value="" style="line;strokeWidth=1;fillColor=none;align=left;verticalAlign=middle;spacingTop=-1;spacingLeft=3;spacingRight=3;rotatable=0;labelPosition=right;points=[];portConstraint=eastwest;strokeColor=inherit;" vertex="1" parent="tM9AjMX9FEMlV-WrsyFi-47">
          <mxGeometry y="130" width="450" height="8" as="geometry" />
        </mxCell>
        <mxCell id="tM9AjMX9FEMlV-WrsyFi-52" value="+ salvar(login: String, senha: String, profile: EnumProfile): SecretariaAcademica" style="text;strokeColor=none;fillColor=none;align=left;verticalAlign=top;spacingLeft=4;spacingRight=4;overflow=hidden;rotatable=0;points=[[0,0.5],[1,0.5]];portConstraint=eastwest;whiteSpace=wrap;html=1;" vertex="1" parent="tM9AjMX9FEMlV-WrsyFi-47">
          <mxGeometry y="138" width="450" height="26" as="geometry" />
        </mxCell>
        <mxCell id="tM9AjMX9FEMlV-WrsyFi-60" value="DisciplinaOfertada" style="swimlane;fontStyle=1;align=center;verticalAlign=top;childLayout=stackLayout;horizontal=1;startSize=26;horizontalStack=0;resizeParent=1;resizeParentMax=0;resizeLast=0;collapsible=1;marginBottom=0;whiteSpace=wrap;html=1;" vertex="1" parent="1">
          <mxGeometry x="-270" y="690" width="450" height="164" as="geometry" />
        </mxCell>
        <mxCell id="tM9AjMX9FEMlV-WrsyFi-61" value="- professor: Professor" style="text;strokeColor=none;fillColor=none;align=left;verticalAlign=top;spacingLeft=4;spacingRight=4;overflow=hidden;rotatable=0;points=[[0,0.5],[1,0.5]];portConstraint=eastwest;whiteSpace=wrap;html=1;" vertex="1" parent="tM9AjMX9FEMlV-WrsyFi-60">
          <mxGeometry y="26" width="450" height="26" as="geometry" />
        </mxCell>
        <mxCell id="tM9AjMX9FEMlV-WrsyFi-66" value="- estaAtivo: boolean" style="text;strokeColor=none;fillColor=none;align=left;verticalAlign=top;spacingLeft=4;spacingRight=4;overflow=hidden;rotatable=0;points=[[0,0.5],[1,0.5]];portConstraint=eastwest;whiteSpace=wrap;html=1;" vertex="1" parent="tM9AjMX9FEMlV-WrsyFi-60">
          <mxGeometry y="52" width="450" height="26" as="geometry" />
        </mxCell>
        <mxCell id="tM9AjMX9FEMlV-WrsyFi-71" value="- anoOfertado: int" style="text;strokeColor=none;fillColor=none;align=left;verticalAlign=top;spacingLeft=4;spacingRight=4;overflow=hidden;rotatable=0;points=[[0,0.5],[1,0.5]];portConstraint=eastwest;whiteSpace=wrap;html=1;" vertex="1" parent="tM9AjMX9FEMlV-WrsyFi-60">
          <mxGeometry y="78" width="450" height="26" as="geometry" />
        </mxCell>
        <mxCell id="tM9AjMX9FEMlV-WrsyFi-74" value="- semestreOfertado: int" style="text;strokeColor=none;fillColor=none;align=left;verticalAlign=top;spacingLeft=4;spacingRight=4;overflow=hidden;rotatable=0;points=[[0,0.5],[1,0.5]];portConstraint=eastwest;whiteSpace=wrap;html=1;" vertex="1" parent="tM9AjMX9FEMlV-WrsyFi-60">
          <mxGeometry y="104" width="450" height="26" as="geometry" />
        </mxCell>
        <mxCell id="tM9AjMX9FEMlV-WrsyFi-67" value="" style="line;strokeWidth=1;fillColor=none;align=left;verticalAlign=middle;spacingTop=-1;spacingLeft=3;spacingRight=3;rotatable=0;labelPosition=right;points=[];portConstraint=eastwest;strokeColor=inherit;" vertex="1" parent="tM9AjMX9FEMlV-WrsyFi-60">
          <mxGeometry y="130" width="450" height="8" as="geometry" />
        </mxCell>
        <mxCell id="tM9AjMX9FEMlV-WrsyFi-68" value="+ verificarTotalAlunos(): int" style="text;strokeColor=none;fillColor=none;align=left;verticalAlign=top;spacingLeft=4;spacingRight=4;overflow=hidden;rotatable=0;points=[[0,0.5],[1,0.5]];portConstraint=eastwest;whiteSpace=wrap;html=1;" vertex="1" parent="tM9AjMX9FEMlV-WrsyFi-60">
          <mxGeometry y="138" width="450" height="26" as="geometry" />
        </mxCell>
        <mxCell id="tM9AjMX9FEMlV-WrsyFi-75" value="&lt;p style=&quot;margin:0px;margin-top:4px;text-align:center;&quot;&gt;&lt;i&gt;&amp;lt;&amp;lt;Interface&amp;gt;&amp;gt;&lt;/i&gt;&lt;br&gt;&lt;b&gt;IAutenticavel&amp;lt;T&amp;gt;&lt;/b&gt;&lt;/p&gt;&lt;br&gt;&lt;hr size=&quot;1&quot;&gt;&lt;p style=&quot;margin:0px;margin-left:4px;&quot;&gt;+ autenticar(login:String, senha:String): Object&amp;lt;T&amp;gt;&lt;br&gt;&lt;br&gt;&lt;/p&gt;" style="verticalAlign=top;align=left;overflow=fill;fontSize=12;fontFamily=Helvetica;html=1;whiteSpace=wrap;" vertex="1" parent="1">
          <mxGeometry x="910" y="227" width="290" height="140" as="geometry" />
        </mxCell>
      </root>
    </mxGraphModel>
  </diagram>
  <diagram name="ClasseV2" id="3Vg3AILBMzxMrB1Ixykf">
    <mxGraphModel dx="3134" dy="2035" grid="1" gridSize="10" guides="1" tooltips="1" connect="1" arrows="1" fold="1" page="1" pageScale="1" pageWidth="827" pageHeight="1169" math="0" shadow="0">
      <root>
        <mxCell id="_5e_Kc8B2z15fY9t8LBS-0" />
        <mxCell id="_5e_Kc8B2z15fY9t8LBS-1" parent="_5e_Kc8B2z15fY9t8LBS-0" />
        <mxCell id="_5e_Kc8B2z15fY9t8LBS-3" style="rounded=0;orthogonalLoop=1;jettySize=auto;html=1;endArrow=block;endFill=0;endSize=10;startSize=10;" edge="1" parent="_5e_Kc8B2z15fY9t8LBS-1" source="_5e_Kc8B2z15fY9t8LBS-4" target="_5e_Kc8B2z15fY9t8LBS-84">
          <mxGeometry relative="1" as="geometry" />
        </mxCell>
        <mxCell id="XFC-E68IDovU8q4EirUI-6" style="rounded=0;orthogonalLoop=1;jettySize=auto;html=1;endArrow=diamondThin;endFill=1;endSize=10;startSize=10;" edge="1" parent="_5e_Kc8B2z15fY9t8LBS-1" source="_5e_Kc8B2z15fY9t8LBS-4" target="_5e_Kc8B2z15fY9t8LBS-77">
          <mxGeometry relative="1" as="geometry" />
        </mxCell>
        <mxCell id="_5e_Kc8B2z15fY9t8LBS-4" value="Professor" style="swimlane;fontStyle=1;align=center;verticalAlign=top;childLayout=stackLayout;horizontal=1;startSize=26;horizontalStack=0;resizeParent=1;resizeParentMax=0;resizeLast=0;collapsible=1;marginBottom=0;whiteSpace=wrap;html=1;" vertex="1" parent="_5e_Kc8B2z15fY9t8LBS-1">
          <mxGeometry x="320" y="550" width="440" height="112" as="geometry" />
        </mxCell>
        <mxCell id="_5e_Kc8B2z15fY9t8LBS-5" value="+&amp;nbsp;" style="text;strokeColor=none;fillColor=none;align=left;verticalAlign=top;spacingLeft=4;spacingRight=4;overflow=hidden;rotatable=0;points=[[0,0.5],[1,0.5]];portConstraint=eastwest;whiteSpace=wrap;html=1;" vertex="1" parent="_5e_Kc8B2z15fY9t8LBS-4">
          <mxGeometry y="26" width="440" height="26" as="geometry" />
        </mxCell>
        <mxCell id="_5e_Kc8B2z15fY9t8LBS-6" value="" style="line;strokeWidth=1;fillColor=none;align=left;verticalAlign=middle;spacingTop=-1;spacingLeft=3;spacingRight=3;rotatable=0;labelPosition=right;points=[];portConstraint=eastwest;strokeColor=inherit;" vertex="1" parent="_5e_Kc8B2z15fY9t8LBS-4">
          <mxGeometry y="52" width="440" height="8" as="geometry" />
        </mxCell>
        <mxCell id="_5e_Kc8B2z15fY9t8LBS-7" value="+ salvar(login: String, senha: String, profile: EnumProfile): Professor" style="text;strokeColor=none;fillColor=none;align=left;verticalAlign=top;spacingLeft=4;spacingRight=4;overflow=hidden;rotatable=0;points=[[0,0.5],[1,0.5]];portConstraint=eastwest;whiteSpace=wrap;html=1;" vertex="1" parent="_5e_Kc8B2z15fY9t8LBS-4">
          <mxGeometry y="60" width="440" height="26" as="geometry" />
        </mxCell>
        <mxCell id="_5e_Kc8B2z15fY9t8LBS-8" value="+ consultarAlunosPorDisciplina(disciplina:Disciplina): List&amp;lt;Aluno&amp;gt;" style="text;strokeColor=none;fillColor=none;align=left;verticalAlign=top;spacingLeft=4;spacingRight=4;overflow=hidden;rotatable=0;points=[[0,0.5],[1,0.5]];portConstraint=eastwest;whiteSpace=wrap;html=1;" vertex="1" parent="_5e_Kc8B2z15fY9t8LBS-4">
          <mxGeometry y="86" width="440" height="26" as="geometry" />
        </mxCell>
        <mxCell id="_5e_Kc8B2z15fY9t8LBS-9" style="rounded=0;orthogonalLoop=1;jettySize=auto;html=1;endArrow=block;endFill=0;endSize=10;startSize=10;" edge="1" parent="_5e_Kc8B2z15fY9t8LBS-1" source="_5e_Kc8B2z15fY9t8LBS-10" target="_5e_Kc8B2z15fY9t8LBS-84">
          <mxGeometry relative="1" as="geometry" />
        </mxCell>
        <mxCell id="_5e_Kc8B2z15fY9t8LBS-10" value="Aluno" style="swimlane;fontStyle=1;align=center;verticalAlign=top;childLayout=stackLayout;horizontal=1;startSize=26;horizontalStack=0;resizeParent=1;resizeParentMax=0;resizeLast=0;collapsible=1;marginBottom=0;whiteSpace=wrap;html=1;" vertex="1" parent="_5e_Kc8B2z15fY9t8LBS-1">
          <mxGeometry x="900" y="154" width="440" height="112" as="geometry" />
        </mxCell>
        <mxCell id="_5e_Kc8B2z15fY9t8LBS-11" value="-" style="text;strokeColor=none;fillColor=none;align=left;verticalAlign=top;spacingLeft=4;spacingRight=4;overflow=hidden;rotatable=0;points=[[0,0.5],[1,0.5]];portConstraint=eastwest;whiteSpace=wrap;html=1;" vertex="1" parent="_5e_Kc8B2z15fY9t8LBS-10">
          <mxGeometry y="26" width="440" height="26" as="geometry" />
        </mxCell>
        <mxCell id="_5e_Kc8B2z15fY9t8LBS-12" value="" style="line;strokeWidth=1;fillColor=none;align=left;verticalAlign=middle;spacingTop=-1;spacingLeft=3;spacingRight=3;rotatable=0;labelPosition=right;points=[];portConstraint=eastwest;strokeColor=inherit;" vertex="1" parent="_5e_Kc8B2z15fY9t8LBS-10">
          <mxGeometry y="52" width="440" height="8" as="geometry" />
        </mxCell>
        <mxCell id="_5e_Kc8B2z15fY9t8LBS-13" value="+ salvar(login: String, senha: String, profile: EnumProfile): Aluno" style="text;strokeColor=none;fillColor=none;align=left;verticalAlign=top;spacingLeft=4;spacingRight=4;overflow=hidden;rotatable=0;points=[[0,0.5],[1,0.5]];portConstraint=eastwest;whiteSpace=wrap;html=1;" vertex="1" parent="_5e_Kc8B2z15fY9t8LBS-10">
          <mxGeometry y="60" width="440" height="26" as="geometry" />
        </mxCell>
        <mxCell id="_5e_Kc8B2z15fY9t8LBS-14" value="+ matricular(): boolean" style="text;strokeColor=none;fillColor=none;align=left;verticalAlign=top;spacingLeft=4;spacingRight=4;overflow=hidden;rotatable=0;points=[[0,0.5],[1,0.5]];portConstraint=eastwest;whiteSpace=wrap;html=1;" vertex="1" parent="_5e_Kc8B2z15fY9t8LBS-10">
          <mxGeometry y="86" width="440" height="26" as="geometry" />
        </mxCell>
        <mxCell id="_5e_Kc8B2z15fY9t8LBS-15" style="rounded=0;orthogonalLoop=1;jettySize=auto;html=1;endArrow=none;endFill=0;" edge="1" parent="_5e_Kc8B2z15fY9t8LBS-1" source="_5e_Kc8B2z15fY9t8LBS-50" target="_5e_Kc8B2z15fY9t8LBS-20">
          <mxGeometry relative="1" as="geometry" />
        </mxCell>
        <mxCell id="_5e_Kc8B2z15fY9t8LBS-16" style="edgeStyle=orthogonalEdgeStyle;rounded=0;orthogonalLoop=1;jettySize=auto;html=1;endArrow=none;endFill=0;" edge="1" parent="_5e_Kc8B2z15fY9t8LBS-1" source="_5e_Kc8B2z15fY9t8LBS-17" target="_5e_Kc8B2z15fY9t8LBS-24">
          <mxGeometry relative="1" as="geometry" />
        </mxCell>
        <mxCell id="_5e_Kc8B2z15fY9t8LBS-17" value="&amp;lt;&amp;lt;enumeration&amp;gt;&amp;gt;&lt;br&gt;&lt;b&gt;EnumTipoDisciplina&lt;/b&gt;" style="swimlane;fontStyle=0;align=center;verticalAlign=top;childLayout=stackLayout;horizontal=1;startSize=40;horizontalStack=0;resizeParent=1;resizeParentMax=0;resizeLast=0;collapsible=0;marginBottom=0;html=1;whiteSpace=wrap;" vertex="1" parent="_5e_Kc8B2z15fY9t8LBS-1">
          <mxGeometry x="-1130" y="595" width="140" height="100" as="geometry" />
        </mxCell>
        <mxCell id="_5e_Kc8B2z15fY9t8LBS-18" value="OBRIGATORIA" style="text;html=1;strokeColor=none;fillColor=none;align=left;verticalAlign=middle;spacingLeft=4;spacingRight=4;overflow=hidden;rotatable=0;points=[[0,0.5],[1,0.5]];portConstraint=eastwest;whiteSpace=wrap;" vertex="1" parent="_5e_Kc8B2z15fY9t8LBS-17">
          <mxGeometry y="40" width="140" height="30" as="geometry" />
        </mxCell>
        <mxCell id="_5e_Kc8B2z15fY9t8LBS-19" value="OPTATIVA" style="text;html=1;strokeColor=none;fillColor=none;align=left;verticalAlign=middle;spacingLeft=4;spacingRight=4;overflow=hidden;rotatable=0;points=[[0,0.5],[1,0.5]];portConstraint=eastwest;whiteSpace=wrap;" vertex="1" parent="_5e_Kc8B2z15fY9t8LBS-17">
          <mxGeometry y="70" width="140" height="30" as="geometry" />
        </mxCell>
        <mxCell id="_5e_Kc8B2z15fY9t8LBS-20" value="&lt;p style=&quot;margin:0px;margin-top:4px;text-align:center;text-decoration:underline;&quot;&gt;&lt;b&gt;DAO&amp;lt;T&amp;gt;&lt;/b&gt;&lt;/p&gt;&lt;hr&gt;&lt;p style=&quot;margin:0px;margin-left:8px;&quot;&gt;cadastrar(object: T): T&lt;/p&gt;&lt;p style=&quot;margin:0px;margin-left:8px;&quot;&gt;editar(object: T): T&lt;/p&gt;&lt;p style=&quot;margin:0px;margin-left:8px;&quot;&gt;buscar(string:String): T&lt;/p&gt;&lt;p style=&quot;margin:0px;margin-left:8px;&quot;&gt;excluir(object: T): T&lt;/p&gt;&lt;p style=&quot;margin:0px;margin-left:8px;&quot;&gt;buscarTodos:(object: T): List&amp;lt;T&amp;gt;&lt;/p&gt;" style="verticalAlign=top;align=left;overflow=fill;fontSize=12;fontFamily=Helvetica;html=1;whiteSpace=wrap;" vertex="1" parent="_5e_Kc8B2z15fY9t8LBS-1">
          <mxGeometry x="940" y="-131" width="200" height="120" as="geometry" />
        </mxCell>
        <mxCell id="_5e_Kc8B2z15fY9t8LBS-21" style="edgeStyle=orthogonalEdgeStyle;rounded=0;orthogonalLoop=1;jettySize=auto;html=1;endArrow=diamondThin;endFill=1;startArrow=none;startFill=0;endSize=10;startSize=10;" edge="1" parent="_5e_Kc8B2z15fY9t8LBS-1" source="_5e_Kc8B2z15fY9t8LBS-24" target="_5e_Kc8B2z15fY9t8LBS-41">
          <mxGeometry relative="1" as="geometry" />
        </mxCell>
        <mxCell id="XFC-E68IDovU8q4EirUI-1" style="edgeStyle=orthogonalEdgeStyle;rounded=0;orthogonalLoop=1;jettySize=auto;html=1;endArrow=none;endFill=0;startArrow=block;startFill=0;endSize=10;startSize=10;" edge="1" parent="_5e_Kc8B2z15fY9t8LBS-1" source="_5e_Kc8B2z15fY9t8LBS-24" target="_5e_Kc8B2z15fY9t8LBS-77">
          <mxGeometry relative="1" as="geometry" />
        </mxCell>
        <mxCell id="_5e_Kc8B2z15fY9t8LBS-24" value="Disciplina" style="swimlane;fontStyle=1;align=center;verticalAlign=top;childLayout=stackLayout;horizontal=1;startSize=26;horizontalStack=0;resizeParent=1;resizeParentMax=0;resizeLast=0;collapsible=1;marginBottom=0;whiteSpace=wrap;html=1;" vertex="1" parent="_5e_Kc8B2z15fY9t8LBS-1">
          <mxGeometry x="-870" y="550" width="450" height="190" as="geometry" />
        </mxCell>
        <mxCell id="_5e_Kc8B2z15fY9t8LBS-25" value="-&amp;nbsp;&lt;u&gt;Id:&lt;/u&gt;&amp;nbsp;bigInt" style="text;strokeColor=none;fillColor=none;align=left;verticalAlign=top;spacingLeft=4;spacingRight=4;overflow=hidden;rotatable=0;points=[[0,0.5],[1,0.5]];portConstraint=eastwest;whiteSpace=wrap;html=1;" vertex="1" parent="_5e_Kc8B2z15fY9t8LBS-24">
          <mxGeometry y="26" width="450" height="26" as="geometry" />
        </mxCell>
        <mxCell id="_5e_Kc8B2z15fY9t8LBS-26" value="- Nome: String" style="text;strokeColor=none;fillColor=none;align=left;verticalAlign=top;spacingLeft=4;spacingRight=4;overflow=hidden;rotatable=0;points=[[0,0.5],[1,0.5]];portConstraint=eastwest;whiteSpace=wrap;html=1;" vertex="1" parent="_5e_Kc8B2z15fY9t8LBS-24">
          <mxGeometry y="52" width="450" height="26" as="geometry" />
        </mxCell>
        <mxCell id="_5e_Kc8B2z15fY9t8LBS-27" value="- credito: int" style="text;strokeColor=none;fillColor=none;align=left;verticalAlign=top;spacingLeft=4;spacingRight=4;overflow=hidden;rotatable=0;points=[[0,0.5],[1,0.5]];portConstraint=eastwest;whiteSpace=wrap;html=1;" vertex="1" parent="_5e_Kc8B2z15fY9t8LBS-24">
          <mxGeometry y="78" width="450" height="26" as="geometry" />
        </mxCell>
        <mxCell id="_5e_Kc8B2z15fY9t8LBS-28" value="- valorCustoHora: BigDecimal" style="text;strokeColor=none;fillColor=none;align=left;verticalAlign=top;spacingLeft=4;spacingRight=4;overflow=hidden;rotatable=0;points=[[0,0.5],[1,0.5]];portConstraint=eastwest;whiteSpace=wrap;html=1;" vertex="1" parent="_5e_Kc8B2z15fY9t8LBS-24">
          <mxGeometry y="104" width="450" height="26" as="geometry" />
        </mxCell>
        <mxCell id="_5e_Kc8B2z15fY9t8LBS-29" value="- tipo: EnumTipoDisciplina" style="text;strokeColor=none;fillColor=none;align=left;verticalAlign=top;spacingLeft=4;spacingRight=4;overflow=hidden;rotatable=0;points=[[0,0.5],[1,0.5]];portConstraint=eastwest;whiteSpace=wrap;html=1;" vertex="1" parent="_5e_Kc8B2z15fY9t8LBS-24">
          <mxGeometry y="130" width="450" height="26" as="geometry" />
        </mxCell>
        <mxCell id="_5e_Kc8B2z15fY9t8LBS-30" value="" style="line;strokeWidth=1;fillColor=none;align=left;verticalAlign=middle;spacingTop=-1;spacingLeft=3;spacingRight=3;rotatable=0;labelPosition=right;points=[];portConstraint=eastwest;strokeColor=inherit;" vertex="1" parent="_5e_Kc8B2z15fY9t8LBS-24">
          <mxGeometry y="156" width="450" height="8" as="geometry" />
        </mxCell>
        <mxCell id="_5e_Kc8B2z15fY9t8LBS-31" value="+&amp;nbsp;" style="text;strokeColor=none;fillColor=none;align=left;verticalAlign=top;spacingLeft=4;spacingRight=4;overflow=hidden;rotatable=0;points=[[0,0.5],[1,0.5]];portConstraint=eastwest;whiteSpace=wrap;html=1;" vertex="1" parent="_5e_Kc8B2z15fY9t8LBS-24">
          <mxGeometry y="164" width="450" height="26" as="geometry" />
        </mxCell>
        <mxCell id="_5e_Kc8B2z15fY9t8LBS-32" style="edgeStyle=orthogonalEdgeStyle;rounded=0;orthogonalLoop=1;jettySize=auto;html=1;entryX=0.5;entryY=0;entryDx=0;entryDy=0;endArrow=none;endFill=0;startArrow=diamondThin;startFill=1;endSize=10;startSize=10;" edge="1" parent="_5e_Kc8B2z15fY9t8LBS-1" source="_5e_Kc8B2z15fY9t8LBS-35" target="_5e_Kc8B2z15fY9t8LBS-41">
          <mxGeometry relative="1" as="geometry" />
        </mxCell>
        <mxCell id="_5e_Kc8B2z15fY9t8LBS-33" style="rounded=0;orthogonalLoop=1;jettySize=auto;html=1;endArrow=none;endFill=0;startArrow=diamondThin;startFill=1;endSize=10;startSize=10;" edge="1" parent="_5e_Kc8B2z15fY9t8LBS-1" source="_5e_Kc8B2z15fY9t8LBS-35" target="_5e_Kc8B2z15fY9t8LBS-50">
          <mxGeometry relative="1" as="geometry" />
        </mxCell>
        <mxCell id="XFC-E68IDovU8q4EirUI-0" style="rounded=0;orthogonalLoop=1;jettySize=auto;html=1;endArrow=none;endFill=0;startArrow=diamondThin;startFill=0;endSize=10;startSize=10;edgeStyle=elbowEdgeStyle;elbow=vertical;" edge="1" parent="_5e_Kc8B2z15fY9t8LBS-1" source="_5e_Kc8B2z15fY9t8LBS-35" target="_5e_Kc8B2z15fY9t8LBS-70">
          <mxGeometry relative="1" as="geometry" />
        </mxCell>
        <mxCell id="XFC-E68IDovU8q4EirUI-2" style="edgeStyle=orthogonalEdgeStyle;rounded=0;orthogonalLoop=1;jettySize=auto;html=1;endArrow=none;endFill=0;startArrow=diamondThin;startFill=0;endSize=10;startSize=10;" edge="1" parent="_5e_Kc8B2z15fY9t8LBS-1" source="_5e_Kc8B2z15fY9t8LBS-35" target="_5e_Kc8B2z15fY9t8LBS-77">
          <mxGeometry relative="1" as="geometry" />
        </mxCell>
        <mxCell id="_5e_Kc8B2z15fY9t8LBS-35" value="Universidade" style="swimlane;fontStyle=1;align=center;verticalAlign=top;childLayout=stackLayout;horizontal=1;startSize=26;horizontalStack=0;resizeParent=1;resizeParentMax=0;resizeLast=0;collapsible=1;marginBottom=0;whiteSpace=wrap;html=1;" vertex="1" parent="_5e_Kc8B2z15fY9t8LBS-1">
          <mxGeometry x="-270" y="-140" width="450" height="138" as="geometry" />
        </mxCell>
        <mxCell id="_5e_Kc8B2z15fY9t8LBS-36" value="- cursos: Hash&amp;lt;String, Curso&amp;gt;" style="text;strokeColor=none;fillColor=none;align=left;verticalAlign=top;spacingLeft=4;spacingRight=4;overflow=hidden;rotatable=0;points=[[0,0.5],[1,0.5]];portConstraint=eastwest;whiteSpace=wrap;html=1;" vertex="1" parent="_5e_Kc8B2z15fY9t8LBS-35">
          <mxGeometry y="26" width="450" height="26" as="geometry" />
        </mxCell>
        <mxCell id="_5e_Kc8B2z15fY9t8LBS-37" value="- matriculas: HashMap&amp;lt;int, Matricula&amp;gt;" style="text;strokeColor=none;fillColor=none;align=left;verticalAlign=top;spacingLeft=4;spacingRight=4;overflow=hidden;rotatable=0;points=[[0,0.5],[1,0.5]];portConstraint=eastwest;whiteSpace=wrap;html=1;" vertex="1" parent="_5e_Kc8B2z15fY9t8LBS-35">
          <mxGeometry y="52" width="450" height="26" as="geometry" />
        </mxCell>
        <mxCell id="_5e_Kc8B2z15fY9t8LBS-38" value="- disciplinasOfertadas: HashMap&amp;lt;string, DisciplinaOfertada&amp;gt;" style="text;strokeColor=none;fillColor=none;align=left;verticalAlign=top;spacingLeft=4;spacingRight=4;overflow=hidden;rotatable=0;points=[[0,0.5],[1,0.5]];portConstraint=eastwest;whiteSpace=wrap;html=1;" vertex="1" parent="_5e_Kc8B2z15fY9t8LBS-35">
          <mxGeometry y="78" width="450" height="26" as="geometry" />
        </mxCell>
        <mxCell id="_5e_Kc8B2z15fY9t8LBS-39" value="" style="line;strokeWidth=1;fillColor=none;align=left;verticalAlign=middle;spacingTop=-1;spacingLeft=3;spacingRight=3;rotatable=0;labelPosition=right;points=[];portConstraint=eastwest;strokeColor=inherit;" vertex="1" parent="_5e_Kc8B2z15fY9t8LBS-35">
          <mxGeometry y="104" width="450" height="8" as="geometry" />
        </mxCell>
        <mxCell id="_5e_Kc8B2z15fY9t8LBS-40" value="+ salvar(login: String, senha: String, profile: EnumProfile): SecretariaAcademica" style="text;strokeColor=none;fillColor=none;align=left;verticalAlign=top;spacingLeft=4;spacingRight=4;overflow=hidden;rotatable=0;points=[[0,0.5],[1,0.5]];portConstraint=eastwest;whiteSpace=wrap;html=1;" vertex="1" parent="_5e_Kc8B2z15fY9t8LBS-35">
          <mxGeometry y="112" width="450" height="26" as="geometry" />
        </mxCell>
        <mxCell id="_5e_Kc8B2z15fY9t8LBS-41" value="Curso" style="swimlane;fontStyle=1;align=center;verticalAlign=top;childLayout=stackLayout;horizontal=1;startSize=26;horizontalStack=0;resizeParent=1;resizeParentMax=0;resizeLast=0;collapsible=1;marginBottom=0;whiteSpace=wrap;html=1;" vertex="1" parent="_5e_Kc8B2z15fY9t8LBS-1">
          <mxGeometry x="-870" y="177" width="450" height="190" as="geometry" />
        </mxCell>
        <mxCell id="_5e_Kc8B2z15fY9t8LBS-42" value="-&amp;nbsp;&lt;u&gt;Id:&lt;/u&gt;&amp;nbsp;bigInt" style="text;strokeColor=none;fillColor=none;align=left;verticalAlign=top;spacingLeft=4;spacingRight=4;overflow=hidden;rotatable=0;points=[[0,0.5],[1,0.5]];portConstraint=eastwest;whiteSpace=wrap;html=1;" vertex="1" parent="_5e_Kc8B2z15fY9t8LBS-41">
          <mxGeometry y="26" width="450" height="26" as="geometry" />
        </mxCell>
        <mxCell id="_5e_Kc8B2z15fY9t8LBS-43" value="- Nome: String" style="text;strokeColor=none;fillColor=none;align=left;verticalAlign=top;spacingLeft=4;spacingRight=4;overflow=hidden;rotatable=0;points=[[0,0.5],[1,0.5]];portConstraint=eastwest;whiteSpace=wrap;html=1;" vertex="1" parent="_5e_Kc8B2z15fY9t8LBS-41">
          <mxGeometry y="52" width="450" height="26" as="geometry" />
        </mxCell>
        <mxCell id="_5e_Kc8B2z15fY9t8LBS-44" value="- disciplinas[]: Disciplina" style="text;strokeColor=none;fillColor=none;align=left;verticalAlign=top;spacingLeft=4;spacingRight=4;overflow=hidden;rotatable=0;points=[[0,0.5],[1,0.5]];portConstraint=eastwest;whiteSpace=wrap;html=1;" vertex="1" parent="_5e_Kc8B2z15fY9t8LBS-41">
          <mxGeometry y="78" width="450" height="26" as="geometry" />
        </mxCell>
        <mxCell id="_5e_Kc8B2z15fY9t8LBS-45" value="" style="line;strokeWidth=1;fillColor=none;align=left;verticalAlign=middle;spacingTop=-1;spacingLeft=3;spacingRight=3;rotatable=0;labelPosition=right;points=[];portConstraint=eastwest;strokeColor=inherit;" vertex="1" parent="_5e_Kc8B2z15fY9t8LBS-41">
          <mxGeometry y="104" width="450" height="8" as="geometry" />
        </mxCell>
        <mxCell id="_5e_Kc8B2z15fY9t8LBS-46" value="+ adicionarDisciplina(disc: Disciplna): Disciplina" style="text;strokeColor=none;fillColor=none;align=left;verticalAlign=top;spacingLeft=4;spacingRight=4;overflow=hidden;rotatable=0;points=[[0,0.5],[1,0.5]];portConstraint=eastwest;whiteSpace=wrap;html=1;" vertex="1" parent="_5e_Kc8B2z15fY9t8LBS-41">
          <mxGeometry y="112" width="450" height="26" as="geometry" />
        </mxCell>
        <mxCell id="_5e_Kc8B2z15fY9t8LBS-47" value="+ removerDisciplina(id: bigint): Disciplina" style="text;strokeColor=none;fillColor=none;align=left;verticalAlign=top;spacingLeft=4;spacingRight=4;overflow=hidden;rotatable=0;points=[[0,0.5],[1,0.5]];portConstraint=eastwest;whiteSpace=wrap;html=1;" vertex="1" parent="_5e_Kc8B2z15fY9t8LBS-41">
          <mxGeometry y="138" width="450" height="26" as="geometry" />
        </mxCell>
        <mxCell id="_5e_Kc8B2z15fY9t8LBS-48" value="+ listarDisciplnas(): List&amp;lt;Disciplina&amp;gt;" style="text;strokeColor=none;fillColor=none;align=left;verticalAlign=top;spacingLeft=4;spacingRight=4;overflow=hidden;rotatable=0;points=[[0,0.5],[1,0.5]];portConstraint=eastwest;whiteSpace=wrap;html=1;" vertex="1" parent="_5e_Kc8B2z15fY9t8LBS-41">
          <mxGeometry y="164" width="450" height="26" as="geometry" />
        </mxCell>
        <mxCell id="_5e_Kc8B2z15fY9t8LBS-49" style="rounded=0;orthogonalLoop=1;jettySize=auto;html=1;endArrow=block;endFill=0;endSize=10;startSize=10;" edge="1" parent="_5e_Kc8B2z15fY9t8LBS-1" source="_5e_Kc8B2z15fY9t8LBS-50" target="_5e_Kc8B2z15fY9t8LBS-84">
          <mxGeometry relative="1" as="geometry" />
        </mxCell>
        <mxCell id="_5e_Kc8B2z15fY9t8LBS-50" value="SecretariaAcademica" style="swimlane;fontStyle=1;align=center;verticalAlign=top;childLayout=stackLayout;horizontal=1;startSize=26;horizontalStack=0;resizeParent=1;resizeParentMax=0;resizeLast=0;collapsible=1;marginBottom=0;whiteSpace=wrap;html=1;" vertex="1" parent="_5e_Kc8B2z15fY9t8LBS-1">
          <mxGeometry x="390" y="-205" width="440" height="268" as="geometry" />
        </mxCell>
        <mxCell id="_5e_Kc8B2z15fY9t8LBS-51" value="-" style="text;strokeColor=none;fillColor=none;align=left;verticalAlign=top;spacingLeft=4;spacingRight=4;overflow=hidden;rotatable=0;points=[[0,0.5],[1,0.5]];portConstraint=eastwest;whiteSpace=wrap;html=1;" vertex="1" parent="_5e_Kc8B2z15fY9t8LBS-50">
          <mxGeometry y="26" width="440" height="26" as="geometry" />
        </mxCell>
        <mxCell id="_5e_Kc8B2z15fY9t8LBS-52" style="text;strokeColor=none;fillColor=none;align=left;verticalAlign=top;spacingLeft=4;spacingRight=4;overflow=hidden;rotatable=0;points=[[0,0.5],[1,0.5]];portConstraint=eastwest;whiteSpace=wrap;html=1;" vertex="1" parent="_5e_Kc8B2z15fY9t8LBS-50">
          <mxGeometry y="52" width="440" height="26" as="geometry" />
        </mxCell>
        <mxCell id="_5e_Kc8B2z15fY9t8LBS-53" style="text;strokeColor=none;fillColor=none;align=left;verticalAlign=top;spacingLeft=4;spacingRight=4;overflow=hidden;rotatable=0;points=[[0,0.5],[1,0.5]];portConstraint=eastwest;whiteSpace=wrap;html=1;" vertex="1" parent="_5e_Kc8B2z15fY9t8LBS-50">
          <mxGeometry y="78" width="440" height="26" as="geometry" />
        </mxCell>
        <mxCell id="_5e_Kc8B2z15fY9t8LBS-54" value="" style="line;strokeWidth=1;fillColor=none;align=left;verticalAlign=middle;spacingTop=-1;spacingLeft=3;spacingRight=3;rotatable=0;labelPosition=right;points=[];portConstraint=eastwest;strokeColor=inherit;" vertex="1" parent="_5e_Kc8B2z15fY9t8LBS-50">
          <mxGeometry y="104" width="440" height="8" as="geometry" />
        </mxCell>
        <mxCell id="_5e_Kc8B2z15fY9t8LBS-55" value="+ salvar(login: String, senha: String, profile: EnumProfile): SecretariaAcademica" style="text;strokeColor=none;fillColor=none;align=left;verticalAlign=top;spacingLeft=4;spacingRight=4;overflow=hidden;rotatable=0;points=[[0,0.5],[1,0.5]];portConstraint=eastwest;whiteSpace=wrap;html=1;" vertex="1" parent="_5e_Kc8B2z15fY9t8LBS-50">
          <mxGeometry y="112" width="440" height="26" as="geometry" />
        </mxCell>
        <mxCell id="_5e_Kc8B2z15fY9t8LBS-56" value="+ cadastrar(object: T): T" style="text;strokeColor=none;fillColor=none;align=left;verticalAlign=top;spacingLeft=4;spacingRight=4;overflow=hidden;rotatable=0;points=[[0,0.5],[1,0.5]];portConstraint=eastwest;whiteSpace=wrap;html=1;" vertex="1" parent="_5e_Kc8B2z15fY9t8LBS-50">
          <mxGeometry y="138" width="440" height="26" as="geometry" />
        </mxCell>
        <mxCell id="_5e_Kc8B2z15fY9t8LBS-57" value="+ editar(object: T): T" style="text;strokeColor=none;fillColor=none;align=left;verticalAlign=top;spacingLeft=4;spacingRight=4;overflow=hidden;rotatable=0;points=[[0,0.5],[1,0.5]];portConstraint=eastwest;whiteSpace=wrap;html=1;" vertex="1" parent="_5e_Kc8B2z15fY9t8LBS-50">
          <mxGeometry y="164" width="440" height="26" as="geometry" />
        </mxCell>
        <mxCell id="_5e_Kc8B2z15fY9t8LBS-58" value="+ buscar(object: T): T" style="text;strokeColor=none;fillColor=none;align=left;verticalAlign=top;spacingLeft=4;spacingRight=4;overflow=hidden;rotatable=0;points=[[0,0.5],[1,0.5]];portConstraint=eastwest;whiteSpace=wrap;html=1;" vertex="1" parent="_5e_Kc8B2z15fY9t8LBS-50">
          <mxGeometry y="190" width="440" height="26" as="geometry" />
        </mxCell>
        <mxCell id="_5e_Kc8B2z15fY9t8LBS-59" value="+ excluir(object: T): T" style="text;strokeColor=none;fillColor=none;align=left;verticalAlign=top;spacingLeft=4;spacingRight=4;overflow=hidden;rotatable=0;points=[[0,0.5],[1,0.5]];portConstraint=eastwest;whiteSpace=wrap;html=1;" vertex="1" parent="_5e_Kc8B2z15fY9t8LBS-50">
          <mxGeometry y="216" width="440" height="26" as="geometry" />
        </mxCell>
        <mxCell id="_5e_Kc8B2z15fY9t8LBS-60" value="+ buscarTodos(object: T): List&amp;lt;T&amp;gt;" style="text;strokeColor=none;fillColor=none;align=left;verticalAlign=top;spacingLeft=4;spacingRight=4;overflow=hidden;rotatable=0;points=[[0,0.5],[1,0.5]];portConstraint=eastwest;whiteSpace=wrap;html=1;" vertex="1" parent="_5e_Kc8B2z15fY9t8LBS-50">
          <mxGeometry y="242" width="440" height="26" as="geometry" />
        </mxCell>
        <mxCell id="_5e_Kc8B2z15fY9t8LBS-67" style="rounded=0;orthogonalLoop=1;jettySize=auto;html=1;endArrow=none;endFill=0;startArrow=diamondThin;startFill=1;endSize=10;startSize=10;" edge="1" parent="_5e_Kc8B2z15fY9t8LBS-1" source="_5e_Kc8B2z15fY9t8LBS-70" target="_5e_Kc8B2z15fY9t8LBS-10">
          <mxGeometry relative="1" as="geometry" />
        </mxCell>
        <mxCell id="XFC-E68IDovU8q4EirUI-3" style="edgeStyle=orthogonalEdgeStyle;rounded=0;orthogonalLoop=1;jettySize=auto;html=1;endArrow=diamondThin;endFill=0;startArrow=none;startFill=0;endSize=10;startSize=10;" edge="1" parent="_5e_Kc8B2z15fY9t8LBS-1" source="_5e_Kc8B2z15fY9t8LBS-70" target="_5e_Kc8B2z15fY9t8LBS-77">
          <mxGeometry relative="1" as="geometry" />
        </mxCell>
        <mxCell id="_5e_Kc8B2z15fY9t8LBS-70" value="Matricula" style="swimlane;fontStyle=1;align=center;verticalAlign=top;childLayout=stackLayout;horizontal=1;startSize=26;horizontalStack=0;resizeParent=1;resizeParentMax=0;resizeLast=0;collapsible=1;marginBottom=0;whiteSpace=wrap;html=1;" vertex="1" parent="_5e_Kc8B2z15fY9t8LBS-1">
          <mxGeometry x="310" y="243" width="450" height="138" as="geometry" />
        </mxCell>
        <mxCell id="_5e_Kc8B2z15fY9t8LBS-71" value="- &lt;u&gt;id&lt;/u&gt;: Bigint" style="text;strokeColor=none;fillColor=none;align=left;verticalAlign=top;spacingLeft=4;spacingRight=4;overflow=hidden;rotatable=0;points=[[0,0.5],[1,0.5]];portConstraint=eastwest;whiteSpace=wrap;html=1;" vertex="1" parent="_5e_Kc8B2z15fY9t8LBS-70">
          <mxGeometry y="26" width="450" height="26" as="geometry" />
        </mxCell>
        <mxCell id="_5e_Kc8B2z15fY9t8LBS-72" value="- aluno: Aluno" style="text;strokeColor=none;fillColor=none;align=left;verticalAlign=top;spacingLeft=4;spacingRight=4;overflow=hidden;rotatable=0;points=[[0,0.5],[1,0.5]];portConstraint=eastwest;whiteSpace=wrap;html=1;" vertex="1" parent="_5e_Kc8B2z15fY9t8LBS-70">
          <mxGeometry y="52" width="450" height="26" as="geometry" />
        </mxCell>
        <mxCell id="_5e_Kc8B2z15fY9t8LBS-73" value="- curso: Curso" style="text;strokeColor=none;fillColor=none;align=left;verticalAlign=top;spacingLeft=4;spacingRight=4;overflow=hidden;rotatable=0;points=[[0,0.5],[1,0.5]];portConstraint=eastwest;whiteSpace=wrap;html=1;" vertex="1" parent="_5e_Kc8B2z15fY9t8LBS-70">
          <mxGeometry y="78" width="450" height="26" as="geometry" />
        </mxCell>
        <mxCell id="_5e_Kc8B2z15fY9t8LBS-75" value="" style="line;strokeWidth=1;fillColor=none;align=left;verticalAlign=middle;spacingTop=-1;spacingLeft=3;spacingRight=3;rotatable=0;labelPosition=right;points=[];portConstraint=eastwest;strokeColor=inherit;" vertex="1" parent="_5e_Kc8B2z15fY9t8LBS-70">
          <mxGeometry y="104" width="450" height="8" as="geometry" />
        </mxCell>
        <mxCell id="_5e_Kc8B2z15fY9t8LBS-76" value="+ salvar(login: String, senha: String, profile: EnumProfile): SecretariaAcademica" style="text;strokeColor=none;fillColor=none;align=left;verticalAlign=top;spacingLeft=4;spacingRight=4;overflow=hidden;rotatable=0;points=[[0,0.5],[1,0.5]];portConstraint=eastwest;whiteSpace=wrap;html=1;" vertex="1" parent="_5e_Kc8B2z15fY9t8LBS-70">
          <mxGeometry y="112" width="450" height="26" as="geometry" />
        </mxCell>
        <mxCell id="_5e_Kc8B2z15fY9t8LBS-77" value="DisciplinaOfertada" style="swimlane;fontStyle=1;align=center;verticalAlign=top;childLayout=stackLayout;horizontal=1;startSize=26;horizontalStack=0;resizeParent=1;resizeParentMax=0;resizeLast=0;collapsible=1;marginBottom=0;whiteSpace=wrap;html=1;" vertex="1" parent="_5e_Kc8B2z15fY9t8LBS-1">
          <mxGeometry x="-280" y="217" width="470" height="190" as="geometry" />
        </mxCell>
        <mxCell id="_5e_Kc8B2z15fY9t8LBS-78" value="- professor: Professor" style="text;strokeColor=none;fillColor=none;align=left;verticalAlign=top;spacingLeft=4;spacingRight=4;overflow=hidden;rotatable=0;points=[[0,0.5],[1,0.5]];portConstraint=eastwest;whiteSpace=wrap;html=1;" vertex="1" parent="_5e_Kc8B2z15fY9t8LBS-77">
          <mxGeometry y="26" width="470" height="26" as="geometry" />
        </mxCell>
        <mxCell id="_5e_Kc8B2z15fY9t8LBS-79" value="- estaAtivo: boolean" style="text;strokeColor=none;fillColor=none;align=left;verticalAlign=top;spacingLeft=4;spacingRight=4;overflow=hidden;rotatable=0;points=[[0,0.5],[1,0.5]];portConstraint=eastwest;whiteSpace=wrap;html=1;" vertex="1" parent="_5e_Kc8B2z15fY9t8LBS-77">
          <mxGeometry y="52" width="470" height="26" as="geometry" />
        </mxCell>
        <mxCell id="_5e_Kc8B2z15fY9t8LBS-80" value="- anoOfertado: int" style="text;strokeColor=none;fillColor=none;align=left;verticalAlign=top;spacingLeft=4;spacingRight=4;overflow=hidden;rotatable=0;points=[[0,0.5],[1,0.5]];portConstraint=eastwest;whiteSpace=wrap;html=1;" vertex="1" parent="_5e_Kc8B2z15fY9t8LBS-77">
          <mxGeometry y="78" width="470" height="26" as="geometry" />
        </mxCell>
        <mxCell id="_5e_Kc8B2z15fY9t8LBS-81" value="- semestreOfertado: int" style="text;strokeColor=none;fillColor=none;align=left;verticalAlign=top;spacingLeft=4;spacingRight=4;overflow=hidden;rotatable=0;points=[[0,0.5],[1,0.5]];portConstraint=eastwest;whiteSpace=wrap;html=1;" vertex="1" parent="_5e_Kc8B2z15fY9t8LBS-77">
          <mxGeometry y="104" width="470" height="26" as="geometry" />
        </mxCell>
        <mxCell id="XFC-E68IDovU8q4EirUI-4" value="- aunos: List&amp;lt;Aluno&amp;gt;" style="text;strokeColor=none;fillColor=none;align=left;verticalAlign=top;spacingLeft=4;spacingRight=4;overflow=hidden;rotatable=0;points=[[0,0.5],[1,0.5]];portConstraint=eastwest;whiteSpace=wrap;html=1;" vertex="1" parent="_5e_Kc8B2z15fY9t8LBS-77">
          <mxGeometry y="130" width="470" height="26" as="geometry" />
        </mxCell>
        <mxCell id="_5e_Kc8B2z15fY9t8LBS-82" value="" style="line;strokeWidth=1;fillColor=none;align=left;verticalAlign=middle;spacingTop=-1;spacingLeft=3;spacingRight=3;rotatable=0;labelPosition=right;points=[];portConstraint=eastwest;strokeColor=inherit;" vertex="1" parent="_5e_Kc8B2z15fY9t8LBS-77">
          <mxGeometry y="156" width="470" height="8" as="geometry" />
        </mxCell>
        <mxCell id="_5e_Kc8B2z15fY9t8LBS-83" value="+ verificarTotalAlunos(): int" style="text;strokeColor=none;fillColor=none;align=left;verticalAlign=top;spacingLeft=4;spacingRight=4;overflow=hidden;rotatable=0;points=[[0,0.5],[1,0.5]];portConstraint=eastwest;whiteSpace=wrap;html=1;" vertex="1" parent="_5e_Kc8B2z15fY9t8LBS-77">
          <mxGeometry y="164" width="470" height="26" as="geometry" />
        </mxCell>
        <mxCell id="_5e_Kc8B2z15fY9t8LBS-84" value="&lt;p style=&quot;margin:0px;margin-top:4px;text-align:center;&quot;&gt;&lt;i&gt;&amp;lt;&amp;lt;Interface&amp;gt;&amp;gt;&lt;/i&gt;&lt;br&gt;&lt;b&gt;IAutenticavel&amp;lt;T&amp;gt;&lt;/b&gt;&lt;/p&gt;&lt;br&gt;&lt;hr size=&quot;1&quot;&gt;&lt;p style=&quot;margin:0px;margin-left:4px;&quot;&gt;+ autenticar(login:String, senha:String): Object&amp;lt;T&amp;gt;&lt;br&gt;&lt;br&gt;&lt;/p&gt;" style="verticalAlign=top;align=left;overflow=fill;fontSize=12;fontFamily=Helvetica;html=1;whiteSpace=wrap;" vertex="1" parent="_5e_Kc8B2z15fY9t8LBS-1">
          <mxGeometry x="1550" y="140" width="290" height="140" as="geometry" />
        </mxCell>
      </root>
    </mxGraphModel>
  </diagram>
</mxfile>
